<?xml version="1.0" encoding="utf-8"?>
<!-- Generator: Adobe Illustrator 24.3.0, SVG Export Plug-In . SVG Version: 6.00 Build 0)  -->
<svg version="1.1" id="Layer_1" xmlns="http://www.w3.org/2000/svg" xmlns:xlink="http://www.w3.org/1999/xlink" x="0px" y="0px"
	 viewBox="0 0 530 530" style="enable-background:new 0 0 530 530;" xml:space="preserve">
<style type="text/css">
	.st0{fill:url(#path-2_1_);}
	.st1{display:none;fill:none;stroke:#FFFFFF;stroke-width:10;}
	.st2{filter:url(#Adobe_OpacityMaskFilter);}
	.st3{fill-rule:evenodd;clip-rule:evenodd;fill:#FFFFFF;}
	.st4{mask:url(#mask-5_1_);fill:#FFFFFF;}
</style>
<desc>Created with Sketch.</desc>
<g id="Page-1">
	<g id="icon" transform="translate(9.000000, 9.000000)">
		<g id="body">
			<g>
				<linearGradient id="path-2_1_" gradientUnits="userSpaceOnUse" x1="504.7639" y1="503.2314" x2="17.7638" y2="19.2314">
					<stop  offset="0" style="stop-color:#0A41A0"/>
					<stop  offset="1" style="stop-color:#1E8CC8"/>
				</linearGradient>
				<rect id="path-2_2_" class="st0" width="512" height="512"/>
			</g>
			<circle class="st1" cx="256" cy="256" r="251"/>
		</g>
		<g id="logo" transform="translate(106.000000, 126.000000)">
			<g id="path-1">
			</g>
			<defs>
				<filter id="Adobe_OpacityMaskFilter" filterUnits="userSpaceOnUse" x="0" y="0" width="299.3" height="259.8">
					<feColorMatrix  type="matrix" values="1 0 0 0 0  0 1 0 0 0  0 0 1 0 0  0 0 0 1 0"/>
				</filter>
			</defs>
			<mask maskUnits="userSpaceOnUse" x="0" y="0" width="299.3" height="259.8" id="mask-5_1_">
				<g class="st2">
					<polygon id="path-4_1_" class="st3" points="299.3,0 299.3,259.8 0,259.8 0,0 					"/>
				</g>
			</mask>
			<path id="Fill-1" class="st4" d="M14.6,88.6l135,75.5c0.1,0.1,0.2,0.1,0.3,0l134.9-75.5c0.2-0.1,0.2-0.4,0-0.5l-135-75.5
				c-0.1-0.1-0.2-0.1-0.3,0L14.6,88.1C14.4,88.2,14.4,88.5,14.6,88.6 M144.5,258.2l-143-80.1c-0.1-0.1-0.2-0.3-0.1-0.4l6.2-9.6
				c0.1-0.1,0.3-0.2,0.4-0.1l141.5,79.2c0.1,0.1,0.2,0.1,0.3,0l132.6-74.2c3.3-1.8,4.9-5.5,4.9-9.3v-20.2c0-0.2-0.2-0.3-0.4-0.2
				l-132.1,74c-3.6,2-6.5,2.1-10.2,0L10.9,142.7C4.1,138.3,0,130.8,0,122.7l0-35.2c0-5.1,2.6-6.7,6.5-8.9L144.3,1.4
				c3.4-1.9,7.3-1.9,10.7,0l139.9,78.4c2.9,1.6,4.4,5,4.4,8.5c0,3.2-1.8,6.9-4.4,8.3l-140.2,78.5c-3.6,2-6.5,2-10.1,0L12.3,101
				c-0.2-0.1-0.4,0-0.4,0.2l0,21.4c0,4,2,7.7,5.4,9.9l132.1,74c0.1,0.1,0.2,0.1,0.3,0l134.7-75.4c3.5-2.2,8.5-2.3,11.7,0.5
				c2.1,1.8,3.2,4.5,3.2,7.3l0,24.8c0,7.7-4.4,16-10.6,19.4l-134.1,75.1C151.1,260.3,148.2,260.3,144.5,258.2"/>
		</g>
	</g>
</g>
</svg>
